<svg width="100" height="96" viewBox="0 0 100 96" fill="none" xmlns="http://www.w3.org/2000/svg">
<g clip-path="url(#clip0_748_2602)">
<circle cx="2" cy="74" r="2" fill="#375F97"/>
<circle cx="2" cy="86" r="2" fill="#375F97"/>
<circle cx="12" cy="80" r="2" fill="#375F97"/>
<circle cx="12" cy="92" r="2" fill="#375F97"/>
<circle cx="22" cy="74" r="2" fill="#375F97"/>
<circle cx="22" cy="86" r="2" fill="#375F97"/>
<circle cx="32" cy="80" r="2" fill="#375F97"/>
<circle cx="32" cy="92" r="2" fill="#375F97"/>
<circle cx="42" cy="74" r="2" fill="#375F97"/>
<circle cx="42" cy="86" r="2" fill="#375F97"/>
<circle cx="52" cy="80" r="2" fill="#375F97"/>
<circle cx="52" cy="92" r="2" fill="#375F97"/>
<circle cx="62" cy="74" r="2" fill="#375F97"/>
<circle cx="62" cy="86" r="2" fill="#375F97"/>
<circle cx="72" cy="80" r="2" fill="#375F97"/>
<circle cx="72" cy="92" r="2" fill="#375F97"/>
<circle cx="82" cy="74" r="2" fill="#375F97"/>
<circle cx="82" cy="86" r="2" fill="#375F97"/>
<circle cx="92" cy="80" r="2" fill="#375F97"/>
<circle cx="92" cy="92" r="2" fill="#375F97"/>
<circle cx="2" cy="38" r="2" fill="#375F97"/>
<circle cx="2" cy="62" r="2" fill="#375F97"/>
<circle cx="2" cy="50" r="2" fill="#375F97"/>
<circle cx="12" cy="44" r="2" fill="#375F97"/>
<circle cx="12" cy="68" r="2" fill="#375F97"/>
<circle cx="12" cy="56" r="2" fill="#375F97"/>
<circle cx="22" cy="38" r="2" fill="#375F97"/>
<circle cx="22" cy="62" r="2" fill="#375F97"/>
<circle cx="22" cy="50" r="2" fill="#375F97"/>
<circle cx="32" cy="44" r="2" fill="#375F97"/>
<circle cx="32" cy="68" r="2" fill="#375F97"/>
<circle cx="32" cy="56" r="2" fill="#375F97"/>
<circle cx="42" cy="38" r="2" fill="#375F97"/>
<circle cx="42" cy="62" r="2" fill="#375F97"/>
<circle cx="42" cy="50" r="2" fill="#375F97"/>
<circle cx="52" cy="44" r="2" fill="#375F97"/>
<circle cx="52" cy="68" r="2" fill="#375F97"/>
<circle cx="52" cy="56" r="2" fill="#375F97"/>
<circle cx="62" cy="38" r="2" fill="#375F97"/>
<circle cx="62" cy="62" r="2" fill="#375F97"/>
<circle cx="62" cy="50" r="2" fill="#375F97"/>
<circle cx="72" cy="44" r="2" fill="#375F97"/>
<circle cx="72" cy="68" r="2" fill="#375F97"/>
<circle cx="72" cy="56" r="2" fill="#375F97"/>
<circle cx="82" cy="38" r="2" fill="#375F97"/>
<circle cx="82" cy="62" r="2" fill="#375F97"/>
<circle cx="82" cy="50" r="2" fill="#375F97"/>
<circle cx="92" cy="44" r="2" fill="#375F97"/>
<circle cx="92" cy="68" r="2" fill="#375F97"/>
<circle cx="92" cy="56" r="2" fill="#375F97"/>
<circle cx="2" cy="2" r="2" fill="#375F97"/>
<circle cx="2" cy="26" r="2" fill="#375F97"/>
<circle cx="2" cy="14" r="2" fill="#375F97"/>
<circle cx="12" cy="8" r="2" fill="#375F97"/>
<circle cx="12" cy="32" r="2" fill="#375F97"/>
<circle cx="12" cy="20" r="2" fill="#375F97"/>
<circle cx="22" cy="2" r="2" fill="#375F97"/>
<circle cx="22" cy="26" r="2" fill="#375F97"/>
<circle cx="22" cy="14" r="2" fill="#375F97"/>
<circle cx="32" cy="8" r="2" fill="#375F97"/>
<circle cx="32" cy="32" r="2" fill="#375F97"/>
<circle cx="32" cy="20" r="2" fill="#375F97"/>
<circle cx="42" cy="2" r="2" fill="#375F97"/>
<circle cx="42" cy="26" r="2" fill="#375F97"/>
<circle cx="42" cy="14" r="2" fill="#375F97"/>
<circle cx="52" cy="8" r="2" fill="#375F97"/>
<circle cx="52" cy="32" r="2" fill="#375F97"/>
<circle cx="52" cy="20" r="2" fill="#375F97"/>
<circle cx="62" cy="2" r="2" fill="#375F97"/>
<circle cx="62" cy="26" r="2" fill="#375F97"/>
<circle cx="62" cy="14" r="2" fill="#375F97"/>
<circle cx="72" cy="8" r="2" fill="#375F97"/>
<circle cx="72" cy="32" r="2" fill="#375F97"/>
<circle cx="72" cy="20" r="2" fill="#375F97"/>
<circle cx="82" cy="2" r="2" fill="#375F97"/>
<circle cx="82" cy="26" r="2" fill="#375F97"/>
<circle cx="82" cy="14" r="2" fill="#375F97"/>
<circle cx="92" cy="8" r="2" fill="#375F97"/>
<circle cx="92" cy="32" r="2" fill="#375F97"/>
<circle cx="92" cy="20" r="2" fill="#375F97"/>
</g>
<defs>
<clipPath id="clip0_748_2602">
<rect width="100" height="96" fill="white"/>
</clipPath>
</defs>
</svg>
