<svg width="410" height="43" viewBox="0 0 410 43" fill="none" xmlns="http://www.w3.org/2000/svg">
<g clip-path="url(#clip0_427_37)">
<rect width="410" height="43" fill="#FFF6E6"/>
<path d="M34.5665 -143.872L31.5876 -142.681C13.5391 -135.469 1.30564 -118.451 0.219572 -99.0451L-7 29.9543L30.8719 37.4017C36.254 38.46 41.7735 38.6255 47.2093 37.8917L99.5426 30.8261C103.829 30.2474 108.173 30.2273 112.465 30.7666L173.001 38.372C176.325 38.7896 179.683 38.8721 183.024 38.6181L291.388 30.3809C295.118 30.0974 298.867 30.2333 302.566 30.7859L328.539 34.6663C332.169 35.2086 335.847 35.3496 339.507 35.0869L353.25 34.1003L372.5 32.7183L411 29.9543L429 -108.746L420.95 -123.456C409.611 -144.177 385.318 -154.137 362.697 -147.338L315.268 -133.084C305.026 -130.006 294.068 -130.293 284.002 -133.902L237.198 -150.683C222.573 -155.926 206.341 -154.073 193.274 -145.668L179.917 -137.076C177.643 -135.613 175.254 -134.337 172.774 -133.261L162 -128.585C157.033 -126.429 151.749 -125.095 146.354 -124.633L141.903 -124.252C134.719 -123.638 127.488 -124.584 120.704 -127.027L72.2106 -144.486C66.7779 -146.441 61.0475 -147.442 55.2735 -147.442H53.1204C46.7651 -147.442 40.468 -146.23 34.5665 -143.872Z" fill="#5577FF"/>
<path d="M413.5 -104.223L429 -108.746M429 -108.746L420.95 -123.456C409.611 -144.177 385.318 -154.137 362.697 -147.338L315.268 -133.084C305.026 -130.006 294.068 -130.293 284.002 -133.902L237.198 -150.683C222.573 -155.926 206.341 -154.073 193.274 -145.668L179.917 -137.076C177.643 -135.613 175.254 -134.337 172.774 -133.261L162 -128.585C157.033 -126.429 151.749 -125.095 146.354 -124.633L141.903 -124.252C134.719 -123.638 127.488 -124.584 120.704 -127.027L72.2106 -144.486C66.7779 -146.441 61.0475 -147.442 55.2735 -147.442H53.1204C46.7651 -147.442 40.468 -146.23 34.5665 -143.872L31.5876 -142.681C13.5391 -135.469 1.30564 -118.451 0.219572 -99.0451L-7 29.9543L30.8719 37.4017C36.254 38.46 41.7735 38.6256 47.2093 37.8917L99.5426 30.8261C103.829 30.2474 108.173 30.2273 112.465 30.7666L173.001 38.372C176.325 38.7896 179.683 38.8721 183.024 38.6181L291.388 30.3809C295.118 30.0974 298.867 30.2333 302.566 30.7859L328.539 34.6663C332.169 35.2086 335.847 35.3496 339.507 35.0869L353.25 34.1003L372.5 32.7183L411 29.9543L429 -108.746Z" stroke="#89A1FF"/>
</g>
<defs>
<clipPath id="clip0_427_37">
<rect width="410" height="43" fill="white"/>
</clipPath>
</defs>
</svg>
