<svg width="48" height="48" viewBox="0 0 48 48" fill="none" xmlns="http://www.w3.org/2000/svg">
<g clip-path="url(#clip0_719_8508)">
<rect x="2" y="2" width="44" height="44" rx="10" fill="#F2D8A3"/>
<rect x="12" y="16" width="24" height="16" rx="2" fill="#FCF6E8"/>
<path d="M36.351 22.866C36.211 22.8662 36.0725 22.8874 35.9433 22.9283C35.8142 22.9692 35.6971 23.0289 35.5986 23.1041C35.5001 23.1794 35.4222 23.2685 35.3695 23.3666C35.3167 23.4646 35.2901 23.5696 35.2912 23.6754V27.0892C35.3206 27.287 35.4453 27.4697 35.6415 27.6023C35.8378 27.735 36.0918 27.8083 36.355 27.8083C36.6182 27.8083 36.8722 27.735 37.0685 27.6023C37.2647 27.4697 37.3894 27.287 37.4188 27.0892V23.6754C37.4199 23.5691 37.393 23.4636 37.3398 23.3652C37.2865 23.2667 37.2079 23.1773 37.1086 23.102C37.0093 23.0267 36.8911 22.967 36.7611 22.9265C36.631 22.886 36.4916 22.8654 36.351 22.866Z" fill="#B64809" stroke="#B64809"/>
<path d="M36.3616 14.9574C36.0287 14.6527 35.6325 14.4111 35.1961 14.2468C34.7596 14.0824 34.2916 13.9985 33.8191 14H13.5956C12.6471 14.0006 11.7371 14.3417 11.0638 14.9491C10.3904 15.5564 10.0081 16.3809 10 17.2432V31.0568C10.0018 31.9225 10.3809 32.7522 11.0544 33.3642C11.7278 33.9762 12.6407 34.3206 13.5929 34.3219H33.8191C34.7711 34.3203 35.6837 33.9758 36.3568 33.3638C37.03 32.7518 37.409 31.9222 37.4107 31.0568C37.4107 30.829 37.3112 30.6105 37.134 30.4495C36.9569 30.2884 36.7166 30.1979 36.466 30.1979H36.2278C35.9772 30.1979 35.7369 30.2884 35.5598 30.4495C35.3826 30.6105 35.2831 30.829 35.2831 31.0568C35.2813 31.4094 35.1266 31.7471 34.8524 31.9965C34.5783 32.2459 34.207 32.3869 33.8191 32.3889H13.5956C13.2075 32.3873 12.8359 32.2464 12.5615 31.9969C12.287 31.7475 12.1321 31.4096 12.1303 31.0568V19.4731C12.1303 19.4397 12.1404 19.407 12.1594 19.3784C12.1784 19.3499 12.2057 19.3266 12.2383 19.3112C12.2709 19.2957 12.3075 19.2887 12.3441 19.2909C12.3808 19.2931 12.4161 19.3043 12.4461 19.3235L23.0992 26.1031C23.2791 26.2168 23.493 26.2775 23.7121 26.2771C23.9295 26.2776 24.1417 26.2168 24.3196 26.1031L34.9713 19.3235C35.0014 19.3033 35.0371 19.2912 35.0744 19.2885C35.1116 19.2857 35.149 19.2926 35.1822 19.3081C35.2155 19.3237 35.2433 19.3474 35.2625 19.3765C35.2818 19.4057 35.2917 19.4391 35.2911 19.4731V19.7164C35.2911 19.8407 35.318 19.9638 35.3703 20.0786C35.4227 20.1934 35.4994 20.2978 35.596 20.3857C35.6927 20.4735 35.8075 20.5433 35.9338 20.5908C36.0601 20.6384 36.1955 20.6629 36.3322 20.6629H36.3429C36.6268 20.6629 36.8991 20.5603 37.0999 20.3778C37.3006 20.1953 37.4134 19.9478 37.4134 19.6897V17.2432C37.4096 16.3848 37.0313 15.5627 36.3616 14.9574ZM35.18 16.8321L35.069 16.9014L23.8285 24.0557L23.7134 24.1299L23.5983 24.0557L12.3578 16.9014L12.216 16.8114L12.2936 16.6703C12.4157 16.4494 12.6028 16.2635 12.834 16.1334C13.0653 16.0033 13.3317 15.9339 13.6036 15.9331H33.8191C34.0114 15.933 34.2017 15.9677 34.3791 16.0352C34.5564 16.1026 34.7173 16.2015 34.8522 16.326C34.9154 16.3836 34.9728 16.4463 35.0235 16.5133C35.0435 16.5389 35.1412 16.6849 35.1907 16.7566C35.1954 16.7623 35.1989 16.7687 35.2008 16.7756C35.2028 16.7825 35.2032 16.7896 35.2021 16.7966C35.2009 16.8037 35.1983 16.8104 35.1943 16.8165C35.1903 16.8226 35.185 16.8279 35.1787 16.8321H35.18Z" fill="#B64809" stroke="#B64809"/>
<path d="M35.2931 -0.0917969H12.7069C9.33854 -0.0893159 6.10879 1.24946 3.72649 3.63071C1.34418 6.01196 0.00397235 9.24112 0 12.6095L0 35.1976C0.00446587 38.5646 1.34412 41.7924 3.72516 44.1731C6.10619 46.5538 9.33421 47.893 12.7013 47.897H25.215C25.588 47.897 25.9456 47.7488 26.2094 47.4851C26.4731 47.2214 26.6213 46.8637 26.6213 46.4907C26.6213 46.1177 26.4731 45.7601 26.2094 45.4963C25.9456 45.2326 25.588 45.0845 25.215 45.0845H12.7069C10.0845 45.083 7.56981 44.0411 5.71479 42.1875C3.85977 40.3339 2.81598 37.82 2.8125 35.1976V12.6095C2.81548 9.98673 3.85906 7.47237 5.71413 5.61835C7.5692 3.76434 10.0842 2.72219 12.7069 2.7207H35.2931C37.9158 2.72219 40.4308 3.76434 42.2859 5.61835C44.1409 7.47237 45.1845 9.98673 45.1875 12.6095V35.1976C45.184 37.819 44.141 40.332 42.2872 42.1855C40.4334 44.0389 37.9202 45.0815 35.2987 45.0845L34.8825 45.272C34.5095 45.2774 34.154 45.4308 33.8942 45.6984C33.6343 45.966 33.4914 46.3259 33.4969 46.6988C33.5023 47.0718 33.6558 47.4273 33.9233 47.6872C34.1909 47.947 34.5508 48.0899 34.9237 48.0845H34.9669L35.3213 47.897C38.6847 47.888 41.9075 46.5465 44.2839 44.1663C46.6603 41.786 47.9965 38.561 48 35.1976V12.6095C47.996 9.24112 46.6558 6.01196 44.2735 3.63071C41.8912 1.24946 38.6615 -0.0893159 35.2931 -0.0917969Z" fill="#B64809"/>
</g>
<defs>
<clipPath id="clip0_719_8508">
<rect width="48" height="48" fill="white"/>
</clipPath>
</defs>
</svg>
