<svg width="48" height="48" viewBox="0 0 48 48" fill="none" xmlns="http://www.w3.org/2000/svg">
<g clip-path="url(#clip0_719_8502)">
<rect opacity="0.6" x="2" y="2" width="44" height="44" rx="10" fill="#F2D8A3"/>
<rect x="11" y="21" width="5" height="16" rx="2" fill="#FCF6E8"/>
<path d="M21 26.0363C21 25.3865 21.3157 24.7771 21.8466 24.4024L28.3466 19.8141C29.0381 19.3261 29.9619 19.3261 30.6534 19.8141L37.1534 24.4024C37.6843 24.7771 38 25.3865 38 26.0363V35C38 36.1046 37.1046 37 36 37H34.5C33.3954 37 32.5 36.1046 32.5 35V28.0704C32.5 27.4017 32.1658 26.7772 31.6094 26.4063L30.5285 25.6856C29.8982 25.2654 29.0845 25.2374 28.4268 25.6133L27.0077 26.4242C26.3846 26.7802 26 27.4429 26 28.1606V35C26 36.1046 25.1046 37 24 37H23C21.8954 37 21 36.1046 21 35V26.0363Z" fill="#FCF6E8"/>
<circle cx="13" cy="14" r="3" fill="#FCF6E8"/>
<circle cx="13" cy="14" r="3" fill="#FCF6E8"/>
<circle cx="13" cy="14" r="3" fill="#FCF6E8"/>
<path d="M35.2931 -0.0919189H12.7069C9.33854 -0.089438 6.10879 1.24934 3.72649 3.63059C1.34418 6.01184 0.00397235 9.24099 0 12.6093L0 35.1975C0.00446587 38.5645 1.34412 41.7923 3.72516 44.173C6.10619 46.5537 9.33421 47.8929 12.7012 47.8968H19.215C19.588 47.8968 19.9456 47.7487 20.2094 47.485C20.4731 47.2212 20.6213 46.8635 20.6213 46.4906C20.6213 46.1176 20.4731 45.7599 20.2094 45.4962C19.9456 45.2325 19.588 45.0843 19.215 45.0843H12.7069C10.0845 45.0828 7.56981 44.041 5.71479 42.1873C3.85977 40.3337 2.81598 37.8199 2.8125 35.1975V12.6093C2.81548 9.98661 3.85906 7.47225 5.71413 5.61823C7.5692 3.76422 10.0842 2.72207 12.7069 2.72058H35.2931C37.9158 2.72207 40.4308 3.76422 42.2859 5.61823C44.1409 7.47225 45.1845 9.98661 45.1875 12.6093V35.1975C45.184 37.8189 44.141 40.3319 42.2872 42.1854C40.4334 44.0388 37.9202 45.0814 35.2987 45.0843L28.8825 45.2718C28.5095 45.2773 28.154 45.4307 27.8942 45.6983C27.6343 45.9659 27.4914 46.3257 27.4969 46.6987C27.5023 47.0717 27.6557 47.4272 27.9233 47.687C28.1909 47.9469 28.5508 48.0898 28.9237 48.0843H28.9669L35.3213 47.8968C38.6847 47.8879 41.9075 46.5464 44.2839 44.1662C46.6603 41.7859 47.9965 38.5609 48 35.1975V12.6093C47.996 9.24099 46.6558 6.01184 44.2735 3.63059C41.8912 1.24934 38.6615 -0.089438 35.2931 -0.0919189V-0.0919189Z" fill="#B64809"/>
<path d="M28.125 37.1249V27.5924C28.125 27.2431 28.2638 26.908 28.5108 26.661C28.7578 26.414 29.0928 26.2752 29.4422 26.2752C29.7915 26.2752 30.1266 26.414 30.3736 26.661C30.6206 26.908 30.7594 27.2431 30.7594 27.5924V37.1249C30.7594 37.4978 30.9075 37.8555 31.1713 38.1193C31.435 38.383 31.7927 38.5311 32.1656 38.5311H37.6031C37.9761 38.5311 38.3338 38.383 38.5975 38.1193C38.8612 37.8555 39.0094 37.4978 39.0094 37.1249V27.5924C39.0094 25.0523 38.0003 22.6162 36.2042 20.8201C34.4081 19.0239 31.972 18.0149 29.4319 18.0149C26.8918 18.0149 24.4557 19.0239 22.6596 20.8201C20.8634 22.6162 19.8544 25.0523 19.8544 27.5924V37.1249C19.8544 37.4978 20.0025 37.8555 20.2663 38.1193C20.53 38.383 20.8877 38.5311 21.2606 38.5311H26.7094C26.8948 38.5324 27.0787 38.4969 27.2504 38.4268C27.4221 38.3567 27.5782 38.2533 27.7098 38.1226C27.8414 37.9919 27.9458 37.8364 28.0171 37.6652C28.0883 37.494 28.125 37.3103 28.125 37.1249ZM25.3125 27.5924V35.7186H22.6875V27.5924C22.6875 26.704 22.8625 25.8243 23.2025 25.0035C23.5424 24.1828 24.0407 23.437 24.6689 22.8088C25.2971 22.1806 26.0429 21.6823 26.8636 21.3423C27.6844 21.0024 28.5641 20.8274 29.4525 20.8274C30.3409 20.8274 31.2206 21.0024 32.0414 21.3423C32.8621 21.6823 33.6079 22.1806 34.2361 22.8088C34.8643 23.437 35.3626 24.1828 35.7026 25.0035C36.0425 25.8243 36.2175 26.704 36.2175 27.5924V35.7186H33.5925V27.5924C33.5925 26.4971 33.1574 25.4467 32.3829 24.6723C31.6085 23.8978 30.5581 23.4627 29.4628 23.4627C28.3676 23.4627 27.3171 23.8978 26.5427 24.6723C25.7682 25.4467 25.3331 26.4971 25.3331 27.5924H25.3125Z" fill="#B64809"/>
<path d="M10.4062 19.3762C10.0333 19.3762 9.6756 19.5244 9.41188 19.7881C9.14816 20.0518 9 20.4095 9 20.7825V37.125C9 37.4979 9.14816 37.8556 9.41188 38.1193C9.6756 38.3831 10.0333 38.5312 10.4062 38.5312H15.8531C16.2261 38.5312 16.5838 38.3831 16.8475 38.1193C17.1112 37.8556 17.2594 37.4979 17.2594 37.125V20.7825C17.2594 20.4095 17.1112 20.0518 16.8475 19.7881C16.5838 19.5244 16.2261 19.3762 15.8531 19.3762H10.4062ZM14.4469 35.7187H11.8125V22.1887H14.4469V35.7187Z" fill="#B64809"/>
<path d="M13.1044 9.84375C12.2885 9.84375 11.491 10.0857 10.8126 10.5389C10.1343 10.9922 9.60558 11.6364 9.29337 12.3902C8.98116 13.1439 8.89947 13.9733 9.05863 14.7735C9.2178 15.5737 9.61066 16.3087 10.1876 16.8856C10.7644 17.4625 11.4995 17.8553 12.2996 18.0145C13.0998 18.1737 13.9292 18.092 14.6829 17.7798C15.4367 17.4675 16.0809 16.9388 16.5342 16.2605C16.9874 15.5821 17.2294 14.7846 17.2294 13.9688C17.2294 12.8747 16.7948 11.8255 16.0212 11.0519C15.2476 10.2783 14.1984 9.84375 13.1044 9.84375ZM13.1044 15.2906C12.8448 15.2906 12.591 15.2136 12.3752 15.0694C12.1593 14.9252 11.9911 14.7202 11.8918 14.4804C11.7924 14.2406 11.7664 13.9767 11.8171 13.7221C11.8677 13.4675 11.9927 13.2336 12.1763 13.05C12.3598 12.8665 12.5937 12.7415 12.8483 12.6908C13.1029 12.6402 13.3668 12.6662 13.6066 12.7655C13.8465 12.8649 14.0515 13.0331 14.1957 13.2489C14.3399 13.4648 14.4169 13.7185 14.4169 13.9781C14.4169 14.3262 14.2786 14.6601 14.0324 14.9062C13.7863 15.1523 13.4525 15.2906 13.1044 15.2906Z" fill="#B64809"/>
</g>
<defs>
<clipPath id="clip0_719_8502">
<rect width="48" height="48" fill="white"/>
</clipPath>
</defs>
</svg>
