<svg width="121" height="121" viewBox="0 0 121 121" fill="none" xmlns="http://www.w3.org/2000/svg">
<g clip-path="url(#clip0_739_1136)">
<line y1="30.5" x2="2000" y2="30.5" stroke="#F7E1B5"/>
<line y1="60.5" x2="2000" y2="60.5" stroke="#F7E1B5"/>
<line y1="90.5" x2="2000" y2="90.5" stroke="#F7E1B5"/>
<line y1="120.5" x2="2000" y2="120.5" stroke="#F7E1B5"/>
<line x1="30.5" y1="2000" x2="30.4999" y2="2.18556e-08" stroke="#F7E1B5"/>
<line x1="60.5" y1="2000" x2="60.4999" y2="2.18556e-08" stroke="#F7E1B5"/>
<line x1="90.5" y1="2000" x2="90.4999" y2="2.18556e-08" stroke="#F7E1B5"/>
<line x1="120.5" y1="2000" x2="120.5" y2="2.18556e-08" stroke="#F7E1B5"/>
<path d="M26.5629 31.2973C25.7082 30.9686 25.7082 29.7593 26.5629 29.4306L28.3176 28.7557C28.5817 28.6542 28.7904 28.4455 28.892 28.1814L29.5668 26.4267C29.8956 25.572 31.1048 25.572 31.4335 26.4267L32.1084 28.1814C32.21 28.4455 32.4187 28.6542 32.6828 28.7557L34.4375 29.4306C35.2921 29.7593 35.2921 30.9686 34.4375 31.2973L32.6828 31.9722C32.4187 32.0737 32.21 32.2824 32.1084 32.5465L31.4335 34.3012C31.1048 35.1559 29.8956 35.1559 29.5668 34.3012L28.892 32.5465C28.7904 32.2824 28.5817 32.0737 28.3176 31.9722L26.5629 31.2973Z" fill="#F7E1B5"/>
<path d="M26.4267 91.2973C25.572 90.9686 25.572 89.7593 26.4267 89.4306L28.1814 88.7557C28.4455 88.6542 28.6542 88.4455 28.7557 88.1814L29.4306 86.4267C29.7593 85.572 30.9686 85.572 31.2973 86.4267L31.9722 88.1814C32.0738 88.4455 32.2825 88.6542 32.5465 88.7557L34.3012 89.4306C35.1559 89.7593 35.1559 90.9686 34.3012 91.2973L32.5465 91.9722C32.2825 92.0737 32.0738 92.2824 31.9722 92.5465L31.2973 94.3012C30.9686 95.1559 29.7593 95.1559 29.4306 94.3012L28.7557 92.5465C28.6542 92.2824 28.4455 92.0737 28.1814 91.9722L26.4267 91.2973Z" fill="#F7E1B5"/>
<path d="M86.5668 31.2973C85.7121 30.9686 85.7121 29.7593 86.5668 29.4306L88.3215 28.7557C88.5856 28.6542 88.7943 28.4455 88.8959 28.1814L89.5708 26.4267C89.8995 25.572 91.1087 25.572 91.4374 26.4267L92.1123 28.1814C92.2139 28.4455 92.4226 28.6542 92.6867 28.7557L94.4414 29.4306C95.2961 29.7593 95.2961 30.9686 94.4414 31.2973L92.6867 31.9722C92.4226 32.0737 92.2139 32.2824 92.1123 32.5465L91.4374 34.3012C91.1087 35.1559 89.8995 35.1559 89.5708 34.3012L88.8959 32.5465C88.7943 32.2824 88.5856 32.0737 88.3215 31.9722L86.5668 31.2973Z" fill="#F7E1B5"/>
<path d="M86.4306 91.2973C85.5759 90.9686 85.5759 89.7593 86.4306 89.4306L88.1853 88.7557C88.4494 88.6542 88.6581 88.4455 88.7596 88.1814L89.4345 86.4267C89.7633 85.572 90.9725 85.572 91.3012 86.4267L91.9761 88.1814C92.0777 88.4455 92.2864 88.6542 92.5505 88.7557L94.3051 89.4306C95.1598 89.7593 95.1598 90.9686 94.3051 91.2973L92.5505 91.9722C92.2864 92.0737 92.0777 92.2824 91.9761 92.5465L91.3012 94.3012C90.9725 95.1559 89.7633 95.1559 89.4345 94.3012L88.7596 92.5465C88.6581 92.2824 88.4494 92.0737 88.1853 91.9722L86.4306 91.2973Z" fill="#F7E1B5"/>
</g>
<defs>
<clipPath id="clip0_739_1136">
<rect width="121" height="121" fill="white"/>
</clipPath>
</defs>
</svg>
